<?xml version="1.0" encoding="UTF-8"?>
<!DOCTYPE svg PUBLIC "-//W3C//DTD SVG 1.1//EN" "http://www.w3.org/Graphics/SVG/1.1/DTD/svg11.dtd">
<svg xmlns="http://www.w3.org/2000/svg" version="1.1" width="488px" height="128px" style="shape-rendering:geometricPrecision; text-rendering:geometricPrecision; image-rendering:optimizeQuality; fill-rule:evenodd; clip-rule:evenodd" xmlns:xlink="http://www.w3.org/1999/xlink">
<g><path style="opacity:1" fill="#fefbe9" d="M -0.5,-0.5 C 162.167,-0.5 324.833,-0.5 487.5,-0.5C 487.5,42.1667 487.5,84.8333 487.5,127.5C 324.833,127.5 162.167,127.5 -0.5,127.5C -0.5,84.8333 -0.5,42.1667 -0.5,-0.5 Z"/></g>
<g><path style="opacity:1" fill="#272ec9" d="M 118.5,36.5 C 120.23,38.0789 122.064,39.7455 124,41.5C 124.455,44.8536 124.955,48.1869 125.5,51.5C 124.5,51.5 123.5,51.5 122.5,51.5C 123.226,47.6566 121.892,44.99 118.5,43.5C 118.586,42.5041 118.252,41.6708 117.5,41C 110.321,40.1787 103.321,40.3454 96.5,41.5C 96.5,46.8333 96.5,52.1667 96.5,57.5C 102.509,57.6662 108.509,57.4995 114.5,57C 116.193,56.1534 117.86,55.3201 119.5,54.5C 121.879,53.4331 122.879,54.4331 122.5,57.5C 121.5,57.5 120.5,57.5 119.5,57.5C 119.5,59.1667 119.5,60.8333 119.5,62.5C 111.5,62.5 103.5,62.5 95.5,62.5C 95.5,69.5 95.5,76.5 95.5,83.5C 100.838,84.0139 106.171,84.6805 111.5,85.5C 104.532,86.497 97.5316,86.8303 90.5,86.5C 90.5,69.8333 90.5,53.1667 90.5,36.5C 99.8333,36.5 109.167,36.5 118.5,36.5 Z"/></g>
<g><path style="opacity:1" fill="#e9e9f9" d="M 209.5,86.5 C 208.069,86.1193 207.236,85.1193 207,83.5C 206.5,74.5062 206.334,65.5062 206.5,56.5C 205.022,56.238 203.689,56.5713 202.5,57.5C 202.058,58.7387 201.391,59.7387 200.5,60.5C 200.66,58.8008 200.494,57.1341 200,55.5C 198.293,53.9625 196.793,52.2959 195.5,50.5C 198.292,50.4521 200.125,51.7854 201,54.5C 201.495,52.5273 201.662,50.5273 201.5,48.5C 203.167,48.5 204.833,48.5 206.5,48.5C 206.335,45.1501 206.502,41.8168 207,38.5C 208.18,37.3159 209.68,36.6493 211.5,36.5C 213.32,36.6493 214.82,37.3159 216,38.5C 216.498,41.8168 216.665,45.1501 216.5,48.5C 218.5,48.5 220.5,48.5 222.5,48.5C 222.5,51.1667 222.5,53.8333 222.5,56.5C 220.5,56.5 218.5,56.5 216.5,56.5C 216.334,64.5069 216.5,72.5069 217,80.5C 222.09,80.9058 223.756,83.5724 222,88.5C 218.744,90.4285 215.244,90.9285 211.5,90C 210.177,89.1841 209.511,88.0174 209.5,86.5 Z"/></g>
<g><path style="opacity:1" fill="#3e43b2" d="M 96.5,41.5 C 103.321,40.3454 110.321,40.1787 117.5,41C 118.252,41.6708 118.586,42.5041 118.5,43.5C 117.391,43.4431 116.391,43.1098 115.5,42.5C 115.167,42.5 114.833,42.5 114.5,42.5C 108.69,41.5104 102.69,41.1771 96.5,41.5 Z"/></g>
<g><path style="opacity:1" fill="#656bbe" d="M 327.5,35.5 C 327.833,35.5 328.167,35.5 328.5,35.5C 328.5,52.8333 328.5,70.1667 328.5,87.5C 330.167,87.5 331.833,87.5 333.5,87.5C 333.5,70.1667 333.5,52.8333 333.5,35.5C 334.497,52.9921 334.83,70.6588 334.5,88.5C 332.167,88.5 329.833,88.5 327.5,88.5C 327.5,70.8333 327.5,53.1667 327.5,35.5 Z"/></g>
<g><path style="opacity:1" fill="#252eb2" d="M 328.5,35.5 C 330.167,35.5 331.833,35.5 333.5,35.5C 333.5,52.8333 333.5,70.1667 333.5,87.5C 331.833,87.5 330.167,87.5 328.5,87.5C 328.5,70.1667 328.5,52.8333 328.5,35.5 Z"/></g>
<g><path style="opacity:1" fill="#212aca" d="M 329.5,36.5 C 330.5,36.5 331.5,36.5 332.5,36.5C 332.5,53.1667 332.5,69.8333 332.5,86.5C 331.5,86.5 330.5,86.5 329.5,86.5C 329.579,69.9405 329.579,53.2738 329.5,36.5 Z"/></g>
<g><path style="opacity:1" fill="#f2f4fc" d="M 96.5,41.5 C 102.69,41.1771 108.69,41.5104 114.5,42.5C 109.167,42.5 103.833,42.5 98.5,42.5C 98.5,47.1667 98.5,51.8333 98.5,56.5C 103.511,56.6659 108.511,56.4993 113.5,56C 117.918,53.8903 119.418,50.3903 118,45.5C 116.583,44.9221 115.75,43.9221 115.5,42.5C 116.391,43.1098 117.391,43.4431 118.5,43.5C 120.69,46.9788 121.023,50.6454 119.5,54.5C 117.86,55.3201 116.193,56.1534 114.5,57C 108.509,57.4995 102.509,57.6662 96.5,57.5C 96.5,52.1667 96.5,46.8333 96.5,41.5 Z"/></g>
<g><path style="opacity:1" fill="#fdfce9" d="M 114.5,42.5 C 114.833,42.5 115.167,42.5 115.5,42.5C 115.75,43.9221 116.583,44.9221 118,45.5C 119.418,50.3903 117.918,53.8903 113.5,56C 108.511,56.4993 103.511,56.6659 98.5,56.5C 98.5,51.8333 98.5,47.1667 98.5,42.5C 103.833,42.5 109.167,42.5 114.5,42.5 Z"/></g>
<g><path style="opacity:1" fill="#f7f7f8" d="M 339.5,64.5 C 339.334,69.1785 339.501,73.8452 340,78.5C 340.383,79.056 340.883,79.3893 341.5,79.5C 342.775,83.7731 345.442,86.7731 349.5,88.5C 348.127,88.6567 346.793,88.49 345.5,88C 343.772,86.027 341.939,84.1937 340,82.5C 338.989,83.3366 337.822,83.67 336.5,83.5C 336.575,86.2062 336.908,88.8728 337.5,91.5C 333.829,91.2429 330.495,90.2429 327.5,88.5C 329.833,88.5 332.167,88.5 334.5,88.5C 334.83,70.6588 334.497,52.9921 333.5,35.5C 331.833,35.5 330.167,35.5 328.5,35.5C 328.167,35.5 327.833,35.5 327.5,35.5C 328.476,34.1851 329.476,32.8518 330.5,31.5C 332.13,32.898 333.964,33.898 336,34.5C 336.167,49.8442 336.667,65.1775 337.5,80.5C 338.459,77.3783 338.459,74.2116 337.5,71C 337.497,68.5161 338.163,66.3495 339.5,64.5 Z"/></g>
<g><path style="opacity:1" fill="#3033b9" d="M 118.5,36.5 C 127.855,40.6027 130.021,47.2694 125,56.5C 124.329,57.2524 123.496,57.5858 122.5,57.5C 122.879,54.4331 121.879,53.4331 119.5,54.5C 121.023,50.6454 120.69,46.9788 118.5,43.5C 121.892,44.99 123.226,47.6566 122.5,51.5C 123.5,51.5 124.5,51.5 125.5,51.5C 124.955,48.1869 124.455,44.8536 124,41.5C 122.064,39.7455 120.23,38.0789 118.5,36.5 Z"/></g>
<g><path style="opacity:1" fill="#e8e9f5" d="M 160.5,51.5 C 146.802,45.6882 137.469,49.6882 132.5,63.5C 133.025,57.0473 136.025,52.214 141.5,49C 145.882,46.7336 150.549,46.0669 155.5,47C 157.692,48.0669 159.358,49.5669 160.5,51.5 Z"/></g>
<g><path style="opacity:1" fill="#252eaf" d="M 214.5,49.5 C 215.919,50.4511 217.585,50.7845 219.5,50.5C 219.5,51.8333 219.5,53.1667 219.5,54.5C 217.585,54.2155 215.919,54.5489 214.5,55.5C 214.5,64.1667 214.5,72.8333 214.5,81.5C 212.824,72.3102 211.824,62.8102 211.5,53C 212,52.5 212.5,52 213,51.5C 213.499,47.8484 213.665,44.1817 213.5,40.5C 212.167,40.5 210.833,40.5 209.5,40.5C 209.81,43.7131 209.477,46.7131 208.5,49.5C 208.5,46.1667 208.5,42.8333 208.5,39.5C 210.5,39.5 212.5,39.5 214.5,39.5C 214.5,42.8333 214.5,46.1667 214.5,49.5 Z"/></g>
<g><path style="opacity:1" fill="#5556b6" d="M 214.5,49.5 C 216.5,49.5 218.5,49.5 220.5,49.5C 220.5,51.5 220.5,53.5 220.5,55.5C 218.5,55.5 216.5,55.5 214.5,55.5C 215.919,54.5489 217.585,54.2155 219.5,54.5C 219.5,53.1667 219.5,51.8333 219.5,50.5C 217.585,50.7845 215.919,50.4511 214.5,49.5 Z"/></g>
<g><path style="opacity:1" fill="#3436ba" d="M 259.5,48.5 C 262.484,49.7483 265.318,51.415 268,53.5C 269.202,55.6775 269.702,58.0108 269.5,60.5C 267.5,60.5 265.5,60.5 263.5,60.5C 263.548,57.7081 262.215,55.8747 259.5,55C 255.428,54.0441 251.595,54.5441 248,56.5C 247.333,58.1667 247.333,59.8333 248,61.5C 249.812,62.9771 251.645,64.3104 253.5,65.5C 251.194,65.0074 248.861,64.6741 246.5,64.5C 246.249,61.091 246.583,57.7577 247.5,54.5C 245.603,53.3482 243.936,53.6815 242.5,55.5C 243.254,52.909 244.921,51.0757 247.5,50C 251.395,48.7338 255.395,48.2338 259.5,48.5 Z"/></g>
<g><path style="opacity:1" fill="#6d70b2" d="M 393.5,49.5 C 394.919,48.5489 396.585,48.2155 398.5,48.5C 398.5,50.8333 398.5,53.1667 398.5,55.5C 398.167,55.5 397.833,55.5 397.5,55.5C 397.5,53.5 397.5,51.5 397.5,49.5C 396.167,49.5 394.833,49.5 393.5,49.5 Z"/></g>
<g><path style="opacity:1" fill="#3939bb" d="M 160.5,51.5 C 166.753,56.5834 169.087,63.2501 167.5,71.5C 158.167,71.5 148.833,71.5 139.5,71.5C 148.105,69.5289 157.105,68.8623 166.5,69.5C 166.664,66.8127 166.497,64.146 166,61.5C 164.13,59.7516 162.963,57.5849 162.5,55C 161.668,54.3123 161.002,54.479 160.5,55.5C 162.145,59.3254 162.812,63.3254 162.5,67.5C 154.648,67.8254 146.982,67.492 139.5,66.5C 146.833,66.5 154.167,66.5 161.5,66.5C 161.768,64.901 161.434,63.5676 160.5,62.5C 158.152,55.3259 153.485,52.9925 146.5,55.5C 143.522,56.4777 141.522,58.4777 140.5,61.5C 139.566,62.5676 139.232,63.901 139.5,65.5C 138.736,63.2603 137.902,60.9269 137,58.5C 134.691,64.5398 133.858,70.8731 134.5,77.5C 133.732,76.7375 133.232,75.7375 133,74.5C 132.501,70.8484 132.335,67.1817 132.5,63.5C 137.469,49.6882 146.802,45.6882 160.5,51.5 Z"/></g>
<g><path style="opacity:1" fill="#2f33bc" d="M 181.5,48.5 C 186.3,48.3497 190.967,49.0164 195.5,50.5C 196.793,52.2959 198.293,53.9625 200,55.5C 200.494,57.1341 200.66,58.8008 200.5,60.5C 198.801,60.6602 197.134,60.4935 195.5,60C 194.5,57.6667 192.833,56 190.5,55C 186.973,54.1925 183.64,54.3592 180.5,55.5C 177.724,58.5102 178.058,61.3435 181.5,64C 188.718,64.7376 195.218,67.2376 201,71.5C 203.875,79.5877 201.375,85.421 193.5,89C 188.833,89.6667 184.167,89.6667 179.5,89C 176.379,88.0332 174.046,86.1999 172.5,83.5C 172.167,82.1667 171.833,80.8333 171.5,79.5C 171.5,78.5 171.5,77.5 171.5,76.5C 173.167,76.5 174.833,76.5 176.5,76.5C 177.68,81.6663 181.014,84.333 186.5,84.5C 189.684,84.4913 192.517,83.4913 195,81.5C 195.667,79.5 195.667,77.5 195,75.5C 189.093,72.8082 182.927,70.6415 176.5,69C 175.295,67.6244 173.962,66.4577 172.5,65.5C 170.488,57.1911 173.488,51.5244 181.5,48.5 Z"/></g>
<g><path style="opacity:1" fill="#3134bc" d="M 305.5,56.5 C 304.504,56.4142 303.671,56.7476 303,57.5C 302.991,60.3692 302.824,63.0359 302.5,65.5C 302.672,64.5084 302.338,63.8417 301.5,63.5C 300.694,57.5356 297.194,54.5356 291,54.5C 288.992,54.3068 287.492,54.9735 286.5,56.5C 282.541,58.0727 280.875,61.0727 281.5,65.5C 287.979,66.4907 294.646,66.824 301.5,66.5C 294.352,67.4916 287.019,67.825 279.5,67.5C 280.498,63.1929 280.998,58.8596 281,54.5C 278.79,56.1826 278.29,58.1826 279.5,60.5C 278.675,61.3857 277.675,61.719 276.5,61.5C 276.334,67.5092 276.501,73.5092 277,79.5C 277.875,82.2146 279.708,83.5479 282.5,83.5C 281.907,80.0547 280.907,76.7213 279.5,73.5C 279.543,72.5836 279.876,71.9169 280.5,71.5C 280.263,72.791 280.596,73.791 281.5,74.5C 283.56,83.2875 288.893,85.9542 297.5,82.5C 299.288,82.2148 300.955,82.5481 302.5,83.5C 296.907,88.3466 290.574,89.68 283.5,87.5C 280.21,85.8764 277.543,83.5431 275.5,80.5C 274.513,74.195 274.347,67.8617 275,61.5C 275.959,59.047 277.126,56.7137 278.5,54.5C 285.816,47.5863 293.816,46.753 302.5,52C 304.141,53.129 305.141,54.629 305.5,56.5 Z"/></g>
<g><path style="opacity:1" fill="#222cc5" d="M 214.5,81.5 C 215.048,84.0838 216.715,85.0838 219.5,84.5C 219.5,85.5 219.5,86.5 219.5,87.5C 216.833,87.5 214.167,87.5 211.5,87.5C 210.833,87.5 210.5,87.1667 210.5,86.5C 209.959,76.011 209.293,65.6777 208.5,55.5C 207.081,54.5489 205.415,54.2155 203.5,54.5C 203.5,52.8333 203.5,51.1667 203.5,49.5C 205.167,49.5 206.833,49.5 208.5,49.5C 209.477,46.7131 209.81,43.7131 209.5,40.5C 210.833,40.5 212.167,40.5 213.5,40.5C 213.665,44.1817 213.499,47.8484 213,51.5C 212.5,52 212,52.5 211.5,53C 211.824,62.8102 212.824,72.3102 214.5,81.5 Z"/></g>
<g><path style="opacity:1" fill="#eff1fc" d="M 263.5,60.5 C 261.981,57.1176 259.314,55.7843 255.5,56.5C 253.833,56.6667 252.167,56.8333 250.5,57C 249.483,58.0495 249.316,59.2161 250,60.5C 253.458,63.724 257.625,65.224 262.5,65C 264.319,65.7403 265.652,66.9069 266.5,68.5C 262.391,66.617 258.057,65.617 253.5,65.5C 251.645,64.3104 249.812,62.9771 248,61.5C 247.333,59.8333 247.333,58.1667 248,56.5C 251.595,54.5441 255.428,54.0441 259.5,55C 262.215,55.8747 263.548,57.7081 263.5,60.5 Z"/></g>
<g><path style="opacity:1" fill="#e5e6fb" d="M 180.5,55.5 C 183.64,54.3592 186.973,54.1925 190.5,55C 192.833,56 194.5,57.6667 195.5,60C 197.134,60.4935 198.801,60.6602 200.5,60.5C 196.432,62.3087 193.432,61.142 191.5,57C 187.914,55.8924 184.247,55.3924 180.5,55.5 Z"/></g>
<g><path style="opacity:1" fill="#d3d7fa" d="M 314.5,35.5 C 314.5,52.8333 314.5,70.1667 314.5,87.5C 316.5,87.5 318.5,87.5 320.5,87.5C 318.393,88.4682 316.059,88.8016 313.5,88.5C 313.17,70.6588 313.503,52.9921 314.5,35.5 Z"/></g>
<g><path style="opacity:1" fill="#fdfcea" d="M 263.5,60.5 C 266.287,61.4767 269.287,61.81 272.5,61.5C 272.665,64.8499 272.498,68.1832 272,71.5C 270.814,69.3234 268.981,68.3234 266.5,68.5C 265.652,66.9069 264.319,65.7403 262.5,65C 257.625,65.224 253.458,63.724 250,60.5C 249.316,59.2161 249.483,58.0495 250.5,57C 252.167,56.8333 253.833,56.6667 255.5,56.5C 259.314,55.7843 261.981,57.1176 263.5,60.5 Z"/></g>
<g><path style="opacity:1" fill="#4e4cb1" d="M 242.5,55.5 C 242.323,59.2343 242.656,62.9009 243.5,66.5C 241.467,65.1016 240.467,63.1016 240.5,60.5C 240.436,58.4434 241.102,56.7767 242.5,55.5 Z"/></g>
<g><path style="opacity:1" fill="#e9eaf7" d="M 259.5,48.5 C 263.435,49.0705 267.102,49.7372 270.5,50.5C 270.167,51.1667 269.833,51.8333 269.5,52.5C 270.577,54.7294 271.244,57.0628 271.5,59.5C 274.098,58.2401 276.431,56.5735 278.5,54.5C 277.126,56.7137 275.959,59.047 275,61.5C 274.347,67.8617 274.513,74.195 275.5,80.5C 274.442,79.3998 273.608,78.0664 273,76.5C 272.802,78.3817 272.302,80.0484 271.5,81.5C 271.81,78.2869 271.477,75.2869 270.5,72.5C 269.473,70.8058 268.139,69.4725 266.5,68.5C 268.981,68.3234 270.814,69.3234 272,71.5C 272.498,68.1832 272.665,64.8499 272.5,61.5C 269.287,61.81 266.287,61.4767 263.5,60.5C 265.5,60.5 267.5,60.5 269.5,60.5C 269.702,58.0108 269.202,55.6775 268,53.5C 265.318,51.415 262.484,49.7483 259.5,48.5 Z"/></g>
<g><path style="opacity:1" fill="#272ea4" d="M 208.5,55.5 C 209.293,65.6777 209.959,76.011 210.5,86.5C 210.167,86.5 209.833,86.5 209.5,86.5C 209.167,85.1667 208.833,83.8333 208.5,82.5C 208.5,73.5 208.5,64.5 208.5,55.5 Z"/></g>
<g><path style="opacity:1" fill="#f2f3fc" d="M 160.5,62.5 C 160.5,63.5 160.5,64.5 160.5,65.5C 153.833,65.5 147.167,65.5 140.5,65.5C 140.5,64.1667 140.5,62.8333 140.5,61.5C 141.522,58.4777 143.522,56.4777 146.5,55.5C 153.485,52.9925 158.152,55.3259 160.5,62.5 Z"/></g>
<g><path style="opacity:1" fill="#fdfbe9" d="M 146.5,55.5 C 153.434,54.7834 157.434,57.7834 158.5,64.5C 152.794,64.8288 147.128,64.4954 141.5,63.5C 143.178,60.8053 144.844,58.1386 146.5,55.5 Z"/></g>
<g><path style="opacity:1" fill="#f2f4fb" d="M 301.5,63.5 C 295.25,65.4589 288.584,66.1255 281.5,65.5C 280.875,61.0727 282.541,58.0727 286.5,56.5C 287.492,54.9735 288.992,54.3068 291,54.5C 297.194,54.5356 300.694,57.5356 301.5,63.5 Z"/></g>
<g><path style="opacity:1" fill="#a6a9f5" d="M 203.5,54.5 C 205.415,54.2155 207.081,54.5489 208.5,55.5C 208.5,64.5 208.5,73.5 208.5,82.5C 207.507,73.6822 207.173,64.6822 207.5,55.5C 205.901,55.7678 204.568,55.4345 203.5,54.5 Z"/></g>
<g><path style="opacity:1" fill="#222cc7" d="M 393.5,49.5 C 394.833,49.5 396.167,49.5 397.5,49.5C 397.5,51.5 397.5,53.5 397.5,55.5C 392.487,55.171 388.82,57.171 386.5,61.5C 384.532,69.4329 383.865,77.7663 384.5,86.5C 383.167,86.5 381.833,86.5 380.5,86.5C 380.5,74.5 380.5,62.5 380.5,50.5C 382.167,50.5 383.833,50.5 385.5,50.5C 385.34,52.1992 385.506,53.8659 386,55.5C 388.106,52.8823 390.606,50.8823 393.5,49.5 Z"/></g>
<g><path style="opacity:1" fill="#222dc1" d="M 301.5,66.5 C 302.167,66.5 302.5,66.1667 302.5,65.5C 302.824,63.0359 302.991,60.3692 303,57.5C 303.671,56.7476 304.504,56.4142 305.5,56.5C 306.79,57.0577 307.623,58.0577 308,59.5C 308.499,63.1516 308.665,66.8183 308.5,70.5C 298.985,70.1731 289.652,70.5064 280.5,71.5C 279.876,71.9169 279.543,72.5836 279.5,73.5C 280.907,76.7213 281.907,80.0547 282.5,83.5C 279.708,83.5479 277.875,82.2146 277,79.5C 276.501,73.5092 276.334,67.5092 276.5,61.5C 277.675,61.719 278.675,61.3857 279.5,60.5C 278.29,58.1826 278.79,56.1826 281,54.5C 280.998,58.8596 280.498,63.1929 279.5,67.5C 287.019,67.825 294.352,67.4916 301.5,66.5 Z"/></g>
<g><path style="opacity:1" fill="#7b7fda" d="M 301.5,63.5 C 302.338,63.8417 302.672,64.5084 302.5,65.5C 302.5,66.1667 302.167,66.5 301.5,66.5C 294.646,66.824 287.979,66.4907 281.5,65.5C 288.584,66.1255 295.25,65.4589 301.5,63.5 Z"/></g>
<g><path style="opacity:1" fill="#fdfce9" d="M 286.5,56.5 C 291.849,55.4614 296.349,56.7947 300,60.5C 300.49,61.7932 300.657,63.1266 300.5,64.5C 295.489,64.6659 290.489,64.4993 285.5,64C 284.941,63.2753 284.608,62.4419 284.5,61.5C 285.187,59.8228 285.854,58.1561 286.5,56.5 Z"/></g>
<g><path style="opacity:1" fill="#e7e8fa" d="M 89.5,35.5 C 99.6742,34.1768 110.007,34.1768 120.5,35.5C 128.133,39.6071 130.633,45.9404 128,54.5C 126.959,56.5852 125.459,58.2519 123.5,59.5C 127.128,61.0764 129.628,63.743 131,67.5C 131.21,65.9419 131.71,64.6085 132.5,63.5C 132.335,67.1817 132.501,70.8484 133,74.5C 133.232,75.7375 133.732,76.7375 134.5,77.5C 134.5,77.8333 134.5,78.1667 134.5,78.5C 135.344,81.678 137.011,84.3446 139.5,86.5C 135.432,84.4019 132.765,81.0686 131.5,76.5C 130.719,77.7287 130.219,79.062 130,80.5C 129.329,81.2524 128.496,81.5858 127.5,81.5C 129.408,76.6835 129.908,71.6835 129,66.5C 126.76,63.598 123.927,61.4313 120.5,60C 121.381,59.2917 122.047,58.4584 122.5,57.5C 123.496,57.5858 124.329,57.2524 125,56.5C 130.021,47.2694 127.855,40.6027 118.5,36.5C 109.014,35.5062 99.3478,35.1729 89.5,35.5 Z"/></g>
<g><path style="opacity:1" fill="#2c31bf" d="M 373.5,62.5 C 373.5,65.1667 373.5,67.8333 373.5,70.5C 364.318,70.1734 355.318,70.5067 346.5,71.5C 346.718,81.5502 351.718,85.3835 361.5,83C 364.442,81.5639 366.442,79.3972 367.5,76.5C 369.167,76.5 370.833,76.5 372.5,76.5C 372.5,77.5 372.5,78.5 372.5,79.5C 367.318,88.6515 359.651,91.6515 349.5,88.5C 345.442,86.7731 342.775,83.7731 341.5,79.5C 341.057,76.188 340.724,72.8547 340.5,69.5C 340.698,65.3554 341.365,61.3554 342.5,57.5C 343.927,54.2364 346.261,51.7364 349.5,50C 354.167,49.3333 358.833,49.3333 363.5,50C 369.268,52.263 372.601,56.4296 373.5,62.5 Z"/></g>
<g><path style="opacity:1" fill="#f2f4fe" d="M 353.5,54.5 C 361.685,53.6842 366.351,57.3508 367.5,65.5C 360.5,65.5 353.5,65.5 346.5,65.5C 346.829,60.5139 349.163,56.8473 353.5,54.5 Z"/></g>
<g><path style="opacity:1" fill="#fdfce9" d="M 352.5,56.5 C 355.518,56.3354 358.518,56.502 361.5,57C 363.527,59.0939 365.194,61.4272 366.5,64C 360.509,64.4995 354.509,64.6662 348.5,64.5C 348.343,63.1266 348.51,61.7932 349,60.5C 350.376,59.2949 351.542,57.9616 352.5,56.5 Z"/></g>
<g><path style="opacity:1" fill="#1f2bc8" d="M 139.5,71.5 C 138.683,73.9686 138.183,76.6353 138,79.5C 137.667,79.8333 137.333,80.1667 137,80.5C 136.583,79.244 135.75,78.5774 134.5,78.5C 134.5,78.1667 134.5,77.8333 134.5,77.5C 133.858,70.8731 134.691,64.5398 137,58.5C 137.902,60.9269 138.736,63.2603 139.5,65.5C 139.5,65.8333 139.5,66.1667 139.5,66.5C 146.982,67.492 154.648,67.8254 162.5,67.5C 162.812,63.3254 162.145,59.3254 160.5,55.5C 161.002,54.479 161.668,54.3123 162.5,55C 162.963,57.5849 164.13,59.7516 166,61.5C 166.497,64.146 166.664,66.8127 166.5,69.5C 157.105,68.8623 148.105,69.5289 139.5,71.5 Z"/></g>
<g><path style="opacity:1" fill="#757bd3" d="M 140.5,61.5 C 140.5,62.8333 140.5,64.1667 140.5,65.5C 147.167,65.5 153.833,65.5 160.5,65.5C 160.5,64.5 160.5,63.5 160.5,62.5C 161.434,63.5676 161.768,64.901 161.5,66.5C 154.167,66.5 146.833,66.5 139.5,66.5C 139.5,66.1667 139.5,65.8333 139.5,65.5C 139.232,63.901 139.566,62.5676 140.5,61.5 Z"/></g>
<g><path style="opacity:1" fill="#4543b6" d="M 246.5,68.5 C 251.04,69.8195 255.706,70.6529 260.5,71C 262.751,71.7475 264.084,73.2475 264.5,75.5C 258.461,73.1619 252.461,70.8285 246.5,68.5 Z"/></g>
<g><path style="opacity:1" fill="#8d92e4" d="M 308.5,70.5 C 299.682,71.4933 290.682,71.8266 281.5,71.5C 281.5,72.5 281.5,73.5 281.5,74.5C 280.596,73.791 280.263,72.791 280.5,71.5C 289.652,70.5064 298.985,70.1731 308.5,70.5 Z"/></g>
<g><path style="opacity:1" fill="#29309b" d="M 314.5,35.5 C 316.5,35.5 318.5,35.5 320.5,35.5C 320.5,52.8333 320.5,70.1667 320.5,87.5C 318.5,87.5 316.5,87.5 314.5,87.5C 314.5,70.1667 314.5,52.8333 314.5,35.5 Z"/></g>
<g><path style="opacity:1" fill="#212bc4" d="M 315.5,36.5 C 316.833,36.5 318.167,36.5 319.5,36.5C 319.5,53.1667 319.5,69.8333 319.5,86.5C 318.167,86.5 316.833,86.5 315.5,86.5C 315.5,69.8333 315.5,53.1667 315.5,36.5 Z"/></g>
<g><path style="opacity:1" fill="#8c91dc" d="M 373.5,62.5 C 373.833,62.5 374.167,62.5 374.5,62.5C 374.5,65.5 374.5,68.5 374.5,71.5C 365.167,71.5 355.833,71.5 346.5,71.5C 355.318,70.5067 364.318,70.1734 373.5,70.5C 373.5,67.8333 373.5,65.1667 373.5,62.5 Z"/></g>
<g><path style="opacity:1" fill="#353bac" d="M 342.5,57.5 C 341.365,61.3554 340.698,65.3554 340.5,69.5C 340.724,72.8547 341.057,76.188 341.5,79.5C 340.883,79.3893 340.383,79.056 340,78.5C 339.501,73.8452 339.334,69.1785 339.5,64.5C 339.707,61.7594 340.707,59.4261 342.5,57.5 Z"/></g>
<g><path style="opacity:1" fill="#fbfaee" d="M 139.5,71.5 C 148.833,71.5 158.167,71.5 167.5,71.5C 169.048,71.8212 169.715,72.8212 169.5,74.5C 166.615,74.1936 163.948,74.5269 161.5,75.5C 160.833,75.5 160.5,75.8333 160.5,76.5C 157.511,82.9892 152.511,85.1559 145.5,83C 141.799,80.0987 139.799,76.2654 139.5,71.5 Z"/></g>
<g><path style="opacity:1" fill="#2c30c3" d="M 253.5,65.5 C 258.057,65.617 262.391,66.617 266.5,68.5C 268.139,69.4725 269.473,70.8058 270.5,72.5C 270.466,76.6295 269.799,80.6295 268.5,84.5C 267.106,86.7082 265.106,88.2082 262.5,89C 257.833,89.6667 253.167,89.6667 248.5,89C 244.314,87.1364 241.647,83.9697 240.5,79.5C 240.5,78.5 240.5,77.5 240.5,76.5C 242.167,76.5 243.833,76.5 245.5,76.5C 246.595,81.9172 249.928,84.2505 255.5,83.5C 260.81,84.5207 264.143,82.5207 265.5,77.5C 265.457,76.5836 265.124,75.9169 264.5,75.5C 264.084,73.2475 262.751,71.7475 260.5,71C 255.706,70.6529 251.04,69.8195 246.5,68.5C 244.973,68.573 243.973,67.9063 243.5,66.5C 242.656,62.9009 242.323,59.2343 242.5,55.5C 243.936,53.6815 245.603,53.3482 247.5,54.5C 246.583,57.7577 246.249,61.091 246.5,64.5C 248.861,64.6741 251.194,65.0074 253.5,65.5 Z"/></g>
<g><path style="opacity:1" fill="#f2f3f6" d="M 181.5,48.5 C 173.488,51.5244 170.488,57.1911 172.5,65.5C 173.962,66.4577 175.295,67.6244 176.5,69C 182.927,70.6415 189.093,72.8082 195,75.5C 195.667,77.5 195.667,79.5 195,81.5C 192.517,83.4913 189.684,84.4913 186.5,84.5C 181.014,84.333 177.68,81.6663 176.5,76.5C 174.735,75.5386 172.735,75.2053 170.5,75.5C 170.232,77.099 170.566,78.4324 171.5,79.5C 171.833,80.8333 172.167,82.1667 172.5,83.5C 171,82.4125 169.667,81.0792 168.5,79.5C 167.078,82.9221 164.745,85.2555 161.5,86.5C 163.167,83.8333 164.833,81.1667 166.5,78.5C 167.404,77.791 167.737,76.791 167.5,75.5C 165.5,75.5 163.5,75.5 161.5,75.5C 163.948,74.5269 166.615,74.1936 169.5,74.5C 169.715,72.8212 169.048,71.8212 167.5,71.5C 169.087,63.2501 166.753,56.5834 160.5,51.5C 163.655,51.9842 165.988,53.6509 167.5,56.5C 168.5,56.1667 169.167,55.5 169.5,54.5C 168.926,52.9411 168.26,51.4411 167.5,50C 168,49.5 168.5,49 169,48.5C 170.798,53.4274 172.631,53.0941 174.5,47.5C 176.747,48.3742 179.08,48.7076 181.5,48.5 Z"/></g>
<g><path style="opacity:1" fill="#faf8f3" d="M 379.5,49.5 C 379.5,62.5 379.5,75.5 379.5,88.5C 381.792,88.7564 383.959,88.4231 386,87.5C 386.5,78.8397 386.666,70.1731 386.5,61.5C 388.82,57.171 392.487,55.171 397.5,55.5C 397.833,55.5 398.167,55.5 398.5,55.5C 394.807,55.932 391.64,57.5987 389,60.5C 388.181,70.7438 388.348,80.9105 389.5,91C 387.524,91.1878 385.524,91.0212 383.5,90.5C 379.952,90.9498 376.618,91.9498 373.5,93.5C 373.5,90.8333 373.5,88.1667 373.5,85.5C 370.208,85.1196 367.875,86.4529 366.5,89.5C 363.667,89.8333 360.833,90.1667 358,90.5C 354.748,90.4809 351.915,89.8142 349.5,88.5C 359.651,91.6515 367.318,88.6515 372.5,79.5C 373.434,78.4324 373.768,77.099 373.5,75.5C 371.265,75.2053 369.265,75.5386 367.5,76.5C 366.442,79.3972 364.442,81.5639 361.5,83C 351.718,85.3835 346.718,81.5502 346.5,71.5C 355.833,71.5 365.167,71.5 374.5,71.5C 374.5,68.5 374.5,65.5 374.5,62.5C 375.117,62.6107 375.617,62.944 376,63.5C 376.333,65.8333 376.667,68.1667 377,70.5C 377.333,70.1667 377.667,69.8333 378,69.5C 378.172,62.654 378.672,55.9874 379.5,49.5 Z"/></g>
<g><path style="opacity:1" fill="#afaeea" d="M 160.5,76.5 C 160.5,75.8333 160.833,75.5 161.5,75.5C 163.5,75.5 165.5,75.5 167.5,75.5C 167.737,76.791 167.404,77.791 166.5,78.5C 165.082,76.6921 163.082,76.0254 160.5,76.5 Z"/></g>
<g><path style="opacity:1" fill="#9698d9" d="M 176.5,76.5 C 174.833,76.5 173.167,76.5 171.5,76.5C 171.5,77.5 171.5,78.5 171.5,79.5C 170.566,78.4324 170.232,77.099 170.5,75.5C 172.735,75.2053 174.735,75.5386 176.5,76.5 Z"/></g>
<g><path style="opacity:1" fill="#a4a3e9" d="M 245.5,76.5 C 243.833,76.5 242.167,76.5 240.5,76.5C 240.5,77.5 240.5,78.5 240.5,79.5C 239.566,78.4324 239.232,77.099 239.5,75.5C 241.735,75.2053 243.735,75.5386 245.5,76.5 Z"/></g>
<g><path style="opacity:1" fill="#5053b6" d="M 270.5,72.5 C 271.477,75.2869 271.81,78.2869 271.5,81.5C 270.272,82.3065 269.272,83.3065 268.5,84.5C 269.799,80.6295 270.466,76.6295 270.5,72.5 Z"/></g>
<g><path style="opacity:1" fill="#a2a0e3" d="M 302.5,76.5 C 304.265,75.5386 306.265,75.2053 308.5,75.5C 308.737,76.791 308.404,77.791 307.5,78.5C 306.448,76.744 304.781,76.0773 302.5,76.5 Z"/></g>
<g><path style="opacity:1" fill="#9999e3" d="M 367.5,76.5 C 369.265,75.5386 371.265,75.2053 373.5,75.5C 373.768,77.099 373.434,78.4324 372.5,79.5C 372.5,78.5 372.5,77.5 372.5,76.5C 370.833,76.5 369.167,76.5 367.5,76.5 Z"/></g>
<g><path style="opacity:1" fill="#fdfbe9" d="M 172.5,65.5 C 172.561,67.5922 173.561,69.0922 175.5,70C 178.72,71.3524 182.053,72.1857 185.5,72.5C 185.5,74.1667 185.5,75.8333 185.5,77.5C 188.049,77.6126 190.382,76.9459 192.5,75.5C 195.224,77.951 194.891,80.1177 191.5,82C 184.166,84.5171 179.499,82.1838 177.5,75C 175.527,74.5045 173.527,74.3379 171.5,74.5C 171.421,73.0695 171.754,71.7362 172.5,70.5C 172.062,69.4937 171.396,69.4937 170.5,70.5C 168.553,66.3738 168.053,62.0405 169,57.5C 169.638,60.6009 170.805,63.2676 172.5,65.5 Z"/></g>
<g><path style="opacity:1" fill="#4b48b0" d="M 379.5,49.5 C 381.735,49.2053 383.735,49.5386 385.5,50.5C 383.833,50.5 382.167,50.5 380.5,50.5C 380.5,62.5 380.5,74.5 380.5,86.5C 381.833,86.5 383.167,86.5 384.5,86.5C 383.865,77.7663 384.532,69.4329 386.5,61.5C 386.666,70.1731 386.5,78.8397 386,87.5C 383.959,88.4231 381.792,88.7564 379.5,88.5C 379.5,75.5 379.5,62.5 379.5,49.5 Z"/></g>
<g><path style="opacity:1" fill="#3236b7" d="M 302.5,76.5 C 304.781,76.0773 306.448,76.744 307.5,78.5C 305.65,83.8487 301.984,87.3487 296.5,89C 292.833,89.6667 289.167,89.6667 285.5,89C 284.584,88.7216 283.918,88.2216 283.5,87.5C 290.574,89.68 296.907,88.3466 302.5,83.5C 300.955,82.5481 299.288,82.2148 297.5,82.5C 299.167,80.5 300.833,78.5 302.5,76.5 Z"/></g>
<g><path style="opacity:1" fill="#3839ba" d="M 89.5,35.5 C 99.3478,35.1729 109.014,35.5062 118.5,36.5C 109.167,36.5 99.8333,36.5 90.5,36.5C 90.5,53.1667 90.5,69.8333 90.5,86.5C 97.5316,86.8303 104.532,86.497 111.5,85.5C 106.171,84.6805 100.838,84.0139 95.5,83.5C 95.5,76.5 95.5,69.5 95.5,62.5C 103.5,62.5 111.5,62.5 119.5,62.5C 119.5,60.8333 119.5,59.1667 119.5,57.5C 120.5,57.5 121.5,57.5 122.5,57.5C 122.047,58.4584 121.381,59.2917 120.5,60C 123.927,61.4313 126.76,63.598 129,66.5C 129.908,71.6835 129.408,76.6835 127.5,81.5C 124.252,84.9587 120.252,87.1254 115.5,88C 106.84,88.4998 98.1731,88.6664 89.5,88.5C 89.5,70.8333 89.5,53.1667 89.5,35.5 Z"/></g>
<g><path style="opacity:1" fill="#fdfbea" d="M 120.5,67.5 C 121.117,67.6107 121.617,67.944 122,68.5C 122.167,69.8333 122.333,71.1667 122.5,72.5C 122.639,74.8825 121.972,76.8825 120.5,78.5C 113.382,80.508 106.049,81.008 98.5,80C 97.5286,74.9283 97.1953,69.7616 97.5,64.5C 102.179,64.3342 106.845,64.5008 111.5,65C 111.132,66.473 111.632,67.973 113,69.5C 114.703,66.2808 117.203,65.6141 120.5,67.5 Z"/></g>
<g><path style="opacity:1" fill="#f6f5fc" d="M 120.5,67.5 C 117.203,65.6141 114.703,66.2808 113,69.5C 111.632,67.973 111.132,66.473 111.5,65C 106.845,64.5008 102.179,64.3342 97.5,64.5C 97.1953,69.7616 97.5286,74.9283 98.5,80C 106.049,81.008 113.382,80.508 120.5,78.5C 119.942,79.7899 118.942,80.6232 117.5,81C 110.508,81.4996 103.508,81.6663 96.5,81.5C 96.5,75.5 96.5,69.5 96.5,63.5C 102.842,63.3338 109.175,63.5005 115.5,64C 117.881,64.2233 119.547,65.39 120.5,67.5 Z"/></g>
<g><path style="opacity:1" fill="#3034bc" d="M 139.5,71.5 C 139.799,76.2654 141.799,80.0987 145.5,83C 152.511,85.1559 157.511,82.9892 160.5,76.5C 163.082,76.0254 165.082,76.6921 166.5,78.5C 164.833,81.1667 163.167,83.8333 161.5,86.5C 154.106,90.3782 146.772,90.3782 139.5,86.5C 137.011,84.3446 135.344,81.678 134.5,78.5C 135.75,78.5774 136.583,79.244 137,80.5C 137.333,80.1667 137.667,79.8333 138,79.5C 138.183,76.6353 138.683,73.9686 139.5,71.5 Z"/></g>
<g><path style="opacity:1" fill="#32349a" d="M 214.5,81.5 C 216.142,83.0808 218.142,83.7475 220.5,83.5C 220.5,85.1667 220.5,86.8333 220.5,88.5C 217.287,88.81 214.287,88.4767 211.5,87.5C 214.167,87.5 216.833,87.5 219.5,87.5C 219.5,86.5 219.5,85.5 219.5,84.5C 216.715,85.0838 215.048,84.0838 214.5,81.5 Z"/></g>
</svg>
